<mxfile host="Electron" modified="2023-10-10T18:13:23.115Z" agent="Mozilla/5.0 (X11; Linux x86_64) AppleWebKit/537.36 (KHTML, like Gecko) draw.io/22.0.2 Chrome/114.0.5735.289 Electron/25.8.4 Safari/537.36" etag="gFrMzPQLJpfofk9ng81f" version="22.0.2" type="device">
  <diagram name="Page-1" id="Nv8vaJcM4QDIebQTit32">
    <mxGraphModel dx="1434" dy="781" grid="1" gridSize="10" guides="1" tooltips="1" connect="1" arrows="1" fold="1" page="1" pageScale="1" pageWidth="827" pageHeight="1169" math="0" shadow="0">
      <root>
        <mxCell id="0" />
        <mxCell id="1" parent="0" />
        <mxCell id="jsPVeI7ytuAK9CtYSdAV-1" value="Login" style="ellipse;whiteSpace=wrap;html=1;" parent="1" vertex="1">
          <mxGeometry x="250" y="396" width="170" height="140" as="geometry" />
        </mxCell>
        <mxCell id="jsPVeI7ytuAK9CtYSdAV-3" value="" style="edgeStyle=none;orthogonalLoop=1;jettySize=auto;html=1;rounded=0;entryX=0;entryY=0;entryDx=0;entryDy=0;" parent="1" target="jsPVeI7ytuAK9CtYSdAV-1" edge="1">
          <mxGeometry width="100" relative="1" as="geometry">
            <mxPoint x="60" y="326" as="sourcePoint" />
            <mxPoint x="210" y="396" as="targetPoint" />
            <Array as="points">
              <mxPoint x="220" y="326" />
            </Array>
          </mxGeometry>
        </mxCell>
        <mxCell id="jsPVeI7ytuAK9CtYSdAV-4" value="" style="edgeStyle=none;orthogonalLoop=1;jettySize=auto;html=1;rounded=0;exitX=0;exitY=1;exitDx=0;exitDy=0;" parent="1" source="jsPVeI7ytuAK9CtYSdAV-1" edge="1">
          <mxGeometry width="100" relative="1" as="geometry">
            <mxPoint x="100" y="486" as="sourcePoint" />
            <mxPoint x="60" y="606" as="targetPoint" />
            <Array as="points">
              <mxPoint x="220" y="606" />
            </Array>
          </mxGeometry>
        </mxCell>
        <mxCell id="jsPVeI7ytuAK9CtYSdAV-10" value="" style="edgeStyle=none;orthogonalLoop=1;jettySize=auto;html=1;rounded=0;exitX=1;exitY=0;exitDx=0;exitDy=0;entryX=0.057;entryY=0.263;entryDx=0;entryDy=0;entryPerimeter=0;" parent="1" source="jsPVeI7ytuAK9CtYSdAV-1" target="wiPIHEhx2NYUw8NA-F7D-9" edge="1">
          <mxGeometry width="100" relative="1" as="geometry">
            <mxPoint x="430" y="407" as="sourcePoint" />
            <mxPoint x="560" y="417" as="targetPoint" />
            <Array as="points" />
          </mxGeometry>
        </mxCell>
        <mxCell id="jsPVeI7ytuAK9CtYSdAV-11" value="" style="edgeStyle=none;orthogonalLoop=1;jettySize=auto;html=1;rounded=0;exitX=0.935;exitY=0.757;exitDx=0;exitDy=0;exitPerimeter=0;entryX=0.1;entryY=0.213;entryDx=0;entryDy=0;entryPerimeter=0;" parent="1" source="jsPVeI7ytuAK9CtYSdAV-1" target="zB5RQNQVIBqfSYqidaWU-3" edge="1">
          <mxGeometry width="100" relative="1" as="geometry">
            <mxPoint x="560" y="606" as="sourcePoint" />
            <mxPoint x="440" y="526" as="targetPoint" />
            <Array as="points" />
          </mxGeometry>
        </mxCell>
        <mxCell id="jsPVeI7ytuAK9CtYSdAV-12" value="Login&lt;br&gt;Request" style="text;html=1;align=center;verticalAlign=middle;resizable=0;points=[];autosize=1;strokeColor=none;fillColor=none;" parent="1" vertex="1">
          <mxGeometry x="110" y="288" width="70" height="40" as="geometry" />
        </mxCell>
        <mxCell id="jsPVeI7ytuAK9CtYSdAV-13" value="Invalid&lt;br&gt;Login" style="text;html=1;align=center;verticalAlign=middle;resizable=0;points=[];autosize=1;strokeColor=none;fillColor=none;" parent="1" vertex="1">
          <mxGeometry x="120" y="566" width="60" height="40" as="geometry" />
        </mxCell>
        <mxCell id="jsPVeI7ytuAK9CtYSdAV-14" value="Logout" style="text;html=1;align=center;verticalAlign=middle;resizable=0;points=[];autosize=1;strokeColor=none;fillColor=none;" parent="1" vertex="1">
          <mxGeometry x="410" y="576" width="60" height="30" as="geometry" />
        </mxCell>
        <mxCell id="jsPVeI7ytuAK9CtYSdAV-17" value="Login" style="text;html=1;align=center;verticalAlign=middle;resizable=0;points=[];autosize=1;strokeColor=none;fillColor=none;" parent="1" vertex="1">
          <mxGeometry x="457" y="390" width="50" height="30" as="geometry" />
        </mxCell>
        <mxCell id="jsPVeI7ytuAK9CtYSdAV-18" value="0. 1" style="text;html=1;align=center;verticalAlign=middle;resizable=0;points=[];autosize=1;strokeColor=none;fillColor=none;" parent="1" vertex="1">
          <mxGeometry x="315" y="504" width="40" height="30" as="geometry" />
        </mxCell>
        <mxCell id="zB5RQNQVIBqfSYqidaWU-3" value="Squad&lt;br&gt;Management Module" style="ellipse;whiteSpace=wrap;html=1;" parent="1" vertex="1">
          <mxGeometry x="560" y="602" width="140" height="80" as="geometry" />
        </mxCell>
        <mxCell id="zB5RQNQVIBqfSYqidaWU-4" value="" style="edgeStyle=none;orthogonalLoop=1;jettySize=auto;html=1;rounded=0;exitX=0.007;exitY=0.6;exitDx=0;exitDy=0;exitPerimeter=0;entryX=0.776;entryY=0.929;entryDx=0;entryDy=0;entryPerimeter=0;" parent="1" source="zB5RQNQVIBqfSYqidaWU-3" target="jsPVeI7ytuAK9CtYSdAV-1" edge="1">
          <mxGeometry width="100" relative="1" as="geometry">
            <mxPoint x="390" y="536" as="sourcePoint" />
            <mxPoint x="390" y="536" as="targetPoint" />
            <Array as="points" />
          </mxGeometry>
        </mxCell>
        <mxCell id="zB5RQNQVIBqfSYqidaWU-6" value="" style="edgeStyle=none;orthogonalLoop=1;jettySize=auto;html=1;rounded=0;entryX=1;entryY=0.421;entryDx=0;entryDy=0;entryPerimeter=0;" parent="1" target="jsPVeI7ytuAK9CtYSdAV-1" edge="1">
          <mxGeometry width="100" relative="1" as="geometry">
            <mxPoint x="570" y="455" as="sourcePoint" />
            <mxPoint x="440" y="456" as="targetPoint" />
            <Array as="points" />
          </mxGeometry>
        </mxCell>
        <mxCell id="zB5RQNQVIBqfSYqidaWU-11" value="0.2" style="text;html=1;align=center;verticalAlign=middle;resizable=0;points=[];autosize=1;strokeColor=none;fillColor=none;" parent="1" vertex="1">
          <mxGeometry x="610" y="652" width="40" height="30" as="geometry" />
        </mxCell>
        <mxCell id="wiPIHEhx2NYUw8NA-F7D-1" value="Database" style="shape=partialRectangle;whiteSpace=wrap;html=1;left=0;right=0;fillColor=none;" parent="1" vertex="1">
          <mxGeometry x="250" y="156" width="180" height="55" as="geometry" />
        </mxCell>
        <mxCell id="wiPIHEhx2NYUw8NA-F7D-2" value="" style="edgeStyle=none;orthogonalLoop=1;jettySize=auto;html=1;rounded=0;entryX=0.378;entryY=1.022;entryDx=0;entryDy=0;entryPerimeter=0;exitX=0.4;exitY=0;exitDx=0;exitDy=0;exitPerimeter=0;" parent="1" source="jsPVeI7ytuAK9CtYSdAV-1" target="wiPIHEhx2NYUw8NA-F7D-1" edge="1">
          <mxGeometry width="100" relative="1" as="geometry">
            <mxPoint x="295" y="376" as="sourcePoint" />
            <mxPoint x="320" y="236" as="targetPoint" />
            <Array as="points" />
          </mxGeometry>
        </mxCell>
        <mxCell id="wiPIHEhx2NYUw8NA-F7D-3" value="" style="edgeStyle=none;orthogonalLoop=1;jettySize=auto;html=1;rounded=0;exitX=0.594;exitY=1.067;exitDx=0;exitDy=0;exitPerimeter=0;entryX=0.635;entryY=0.014;entryDx=0;entryDy=0;entryPerimeter=0;" parent="1" source="wiPIHEhx2NYUw8NA-F7D-1" target="jsPVeI7ytuAK9CtYSdAV-1" edge="1">
          <mxGeometry width="100" relative="1" as="geometry">
            <mxPoint x="320" y="316" as="sourcePoint" />
            <mxPoint x="370" y="386" as="targetPoint" />
            <Array as="points" />
          </mxGeometry>
        </mxCell>
        <mxCell id="wiPIHEhx2NYUw8NA-F7D-4" value="Data&lt;br&gt;Request" style="text;html=1;align=center;verticalAlign=middle;resizable=0;points=[];autosize=1;strokeColor=none;fillColor=none;" parent="1" vertex="1">
          <mxGeometry x="253" y="246" width="70" height="40" as="geometry" />
        </mxCell>
        <mxCell id="wiPIHEhx2NYUw8NA-F7D-5" value="Data&lt;br&gt;Response" style="text;html=1;align=center;verticalAlign=middle;resizable=0;points=[];autosize=1;strokeColor=none;fillColor=none;" parent="1" vertex="1">
          <mxGeometry x="350" y="247" width="80" height="40" as="geometry" />
        </mxCell>
        <mxCell id="wiPIHEhx2NYUw8NA-F7D-6" value="Complaint&lt;br&gt;Register Module" style="ellipse;whiteSpace=wrap;html=1;" parent="1" vertex="1">
          <mxGeometry x="559" y="152" width="140" height="80" as="geometry" />
        </mxCell>
        <mxCell id="wiPIHEhx2NYUw8NA-F7D-7" value="" style="edgeStyle=none;orthogonalLoop=1;jettySize=auto;html=1;rounded=0;entryX=0.079;entryY=0.225;entryDx=0;entryDy=0;entryPerimeter=0;exitX=1;exitY=0.25;exitDx=0;exitDy=0;" parent="1" source="wiPIHEhx2NYUw8NA-F7D-1" target="wiPIHEhx2NYUw8NA-F7D-6" edge="1">
          <mxGeometry width="100" relative="1" as="geometry">
            <mxPoint x="440" y="236" as="sourcePoint" />
            <mxPoint x="540" y="236" as="targetPoint" />
            <Array as="points" />
          </mxGeometry>
        </mxCell>
        <mxCell id="wiPIHEhx2NYUw8NA-F7D-8" value="" style="edgeStyle=none;orthogonalLoop=1;jettySize=auto;html=1;rounded=0;entryX=0.989;entryY=0.873;entryDx=0;entryDy=0;entryPerimeter=0;exitX=0.029;exitY=0.675;exitDx=0;exitDy=0;exitPerimeter=0;" parent="1" source="wiPIHEhx2NYUw8NA-F7D-6" target="wiPIHEhx2NYUw8NA-F7D-1" edge="1">
          <mxGeometry width="100" relative="1" as="geometry">
            <mxPoint x="550" y="206" as="sourcePoint" />
            <mxPoint x="460" y="196" as="targetPoint" />
            <Array as="points" />
          </mxGeometry>
        </mxCell>
        <mxCell id="wiPIHEhx2NYUw8NA-F7D-9" value="Complaint&lt;br&gt;Response Module" style="ellipse;whiteSpace=wrap;html=1;" parent="1" vertex="1">
          <mxGeometry x="559" y="396" width="140" height="80" as="geometry" />
        </mxCell>
        <mxCell id="wiPIHEhx2NYUw8NA-F7D-10" value="0.3" style="text;html=1;align=center;verticalAlign=middle;resizable=0;points=[];autosize=1;strokeColor=none;fillColor=none;" parent="1" vertex="1">
          <mxGeometry x="608" y="448" width="40" height="30" as="geometry" />
        </mxCell>
        <mxCell id="wiPIHEhx2NYUw8NA-F7D-11" value="0.4" style="text;html=1;align=center;verticalAlign=middle;resizable=0;points=[];autosize=1;strokeColor=none;fillColor=none;" parent="1" vertex="1">
          <mxGeometry x="608" y="206" width="40" height="30" as="geometry" />
        </mxCell>
        <mxCell id="wiPIHEhx2NYUw8NA-F7D-12" value="Login" style="text;html=1;align=center;verticalAlign=middle;resizable=0;points=[];autosize=1;strokeColor=none;fillColor=none;" parent="1" vertex="1">
          <mxGeometry x="472" y="526" width="50" height="30" as="geometry" />
        </mxCell>
        <mxCell id="wiPIHEhx2NYUw8NA-F7D-13" value="Logout" style="text;html=1;align=center;verticalAlign=middle;resizable=0;points=[];autosize=1;strokeColor=none;fillColor=none;" parent="1" vertex="1">
          <mxGeometry x="454" y="451" width="60" height="30" as="geometry" />
        </mxCell>
        <mxCell id="wiPIHEhx2NYUw8NA-F7D-14" value="Register complaint" style="text;html=1;align=center;verticalAlign=middle;resizable=0;points=[];autosize=1;strokeColor=none;fillColor=none;" parent="1" vertex="1">
          <mxGeometry x="437" y="142" width="120" height="30" as="geometry" />
        </mxCell>
        <mxCell id="wiPIHEhx2NYUw8NA-F7D-15" value="Track Complaint" style="text;html=1;align=center;verticalAlign=middle;resizable=0;points=[];autosize=1;strokeColor=none;fillColor=none;" parent="1" vertex="1">
          <mxGeometry x="442" y="203" width="110" height="30" as="geometry" />
        </mxCell>
        <mxCell id="wiPIHEhx2NYUw8NA-F7D-16" value="" style="edgeStyle=none;orthogonalLoop=1;jettySize=auto;html=1;rounded=0;entryX=1;entryY=0;entryDx=0;entryDy=0;" parent="1" target="wiPIHEhx2NYUw8NA-F7D-6" edge="1">
          <mxGeometry width="100" relative="1" as="geometry">
            <mxPoint x="763" y="80" as="sourcePoint" />
            <mxPoint x="713" y="270" as="targetPoint" />
            <Array as="points" />
          </mxGeometry>
        </mxCell>
        <mxCell id="wiPIHEhx2NYUw8NA-F7D-17" value="Victim" style="text;html=1;align=center;verticalAlign=middle;resizable=0;points=[];autosize=1;strokeColor=none;fillColor=none;rotation=-45;" parent="1" vertex="1">
          <mxGeometry x="686" y="97" width="60" height="30" as="geometry" />
        </mxCell>
      </root>
    </mxGraphModel>
  </diagram>
</mxfile>
